<svg width="49" height="48" viewBox="0 0 49 48" fill="none" xmlns="http://www.w3.org/2000/svg">
<path d="M18.2421 34.7145H9.37109V25.8145H18.2431V34.7145H18.2421ZM10.8721 33.2125H16.7401V27.3165H10.8721V33.2125Z" fill="white"/>
<path d="M33.6376 30.3212H24.7656V21.4492H33.6376V30.3212ZM26.2676 28.8192H32.1356V22.9512H26.2676V28.8192Z" fill="white"/>
<path d="M18.2442 26.565H16.7422V9.50001L33.6372 4.70801V22.2H32.1352V6.69601L18.2442 10.636V26.565Z" fill="white"/>
<path d="M25.7511 32.1829L24.9336 30.9229L11.9533 39.3448L12.7708 40.6048L25.7511 32.1829Z" fill="white"/>
<path d="M41.8534 21.7234L41.0352 20.4639L32.4764 26.0241L33.2947 27.2837L41.8534 21.7234Z" fill="white"/>
<path d="M16.6024 45.1535L11.6094 40.2905V33.9625H13.1114V39.6555L16.7914 43.2395L44.6084 25.2015L40.9804 21.6915L24.9494 11.8415L25.7354 10.5615L41.9664 20.5545L47.0094 25.4335L16.6024 45.1535Z" fill="white"/>
<path d="M13.1114 23.9293H11.6094V1.86426L22.0224 8.26626L21.2354 9.54626L13.1114 4.55226V23.9293Z" fill="white"/>
<path d="M33.0858 9.76817L32.6758 8.32324L17.2838 12.6912L17.6938 14.1362L33.0858 9.76817Z" fill="white"/>
<path d="M18.2437 31.7395H12.3477V25.8145H18.2437V31.7395ZM13.8507 30.2375H16.7427V27.3165H13.8507V30.2375Z" fill="white"/>
<path d="M33.6343 27.3442H27.7383V21.4492H33.6343V27.3442ZM29.2403 25.8422H32.1323V22.9512H29.2403V25.8422Z" fill="white"/>
<path d="M40.3396 24.4961L42.8626 26.9621L41.8136 28.0391L39.0356 25.3461L40.3396 24.4961ZM18.0026 39.1231L20.4966 41.5321L19.4476 42.5811L16.7266 39.9451L18.0026 39.1231ZM21.1766 37.0251L23.6706 39.4341L22.6506 40.5111L19.9006 37.8751L21.1766 37.0251ZM24.3806 34.9281L26.8746 37.3661L25.8546 38.4431L23.1046 35.7781L24.3806 34.9281ZM27.5546 32.8581L30.0776 35.2961L29.0576 36.3731L26.2796 33.6801L27.5546 32.8581ZM30.7576 30.7611L33.2236 33.1421L32.1746 34.2191L29.4816 31.6111L30.7576 30.7611ZM33.9616 28.6631L36.4276 31.0721L35.3786 32.1501L32.6576 29.5141L33.9616 28.6631ZM37.1356 26.5941L39.6296 29.0031L38.5806 30.0801L35.8596 27.4151L37.1356 26.5941Z" fill="white"/>
</svg>
