<svg width="48" height="48" viewBox="0 0 48 48" fill="none" xmlns="http://www.w3.org/2000/svg">
<path d="M17.9319 36.266L16.8689 35.204L41.3109 10.791V8.25298H38.7739L14.3599 32.667L13.2969 31.604L38.1509 6.75098H42.8129V11.414L17.9319 36.266Z" fill="white"/>
<path d="M18.5527 40.6325L17.4907 39.5695L18.9147 38.1445L11.4167 30.6465L9.99169 32.0715L8.92969 31.0095L11.4167 28.5215L21.0397 38.1445L18.5527 40.6325Z" fill="white"/>
<path d="M10.2298 42.8066L6.75781 39.3356L13.9508 32.1416L15.0128 33.2046L8.88281 39.3356L10.2298 40.6816L16.3598 34.5516L17.4218 35.6146L10.2298 42.8066Z" fill="white"/>
<path d="M31.9174 36.2653L24.4054 28.7253L25.4694 27.6643L32.9814 35.2043L31.9174 36.2653ZM35.5194 32.6683L27.9794 25.1553L29.0404 24.0913L36.5804 31.6033L35.5194 32.6683ZM20.8354 25.1553L7.06641 11.4143V6.75129H11.7004L22.1324 17.1833L31.1184 8.19729H19.3814L23.6834 12.4993L22.6204 13.5623L15.7544 6.69629H34.7444L22.1314 19.3083L11.0764 8.25329H8.56841V10.7913L21.8964 24.0923L20.8354 25.1553Z" fill="white"/>
<path d="M31.3268 40.6325L28.8398 38.1445L38.4628 28.5215L40.9498 31.0095L39.8868 32.0715L38.4628 30.6465L30.9648 38.1445L32.3888 39.5695L31.3268 40.6325Z" fill="white"/>
<path d="M39.651 42.8066L32.457 35.6146L33.52 34.5516L39.651 40.6816L40.997 39.3356L34.867 33.2046L35.93 32.1416L43.122 39.3356L39.651 42.8066Z" fill="white"/>
<path d="M39.2464 36.5208L38.1836 35.458L35.7738 37.8678L36.8366 38.9306L39.2464 36.5208Z" fill="white"/>
<path d="M18.5762 4.41211H17.0742V8.06911H18.5762V4.41211Z" fill="white"/>
<path d="M26.002 4.41211H24.5V7.44511H26.002V4.41211Z" fill="white"/>
<path d="M33.4004 4.41211H31.8984V8.06911H33.4004V4.41211Z" fill="white"/>
<path d="M22.2051 4.41211H20.7031V7.44511H22.2051V4.41211Z" fill="white"/>
<path d="M29.5762 4.41211H28.0742V7.44511H29.5762V4.41211Z" fill="white"/>
<path d="M25.6895 28.1953H24.1875V39.0803H25.6895V28.1953Z" fill="white"/>
<path d="M30.9718 43.8204L25.4727 38.3213L24.4099 39.3841L29.909 44.8832L30.9718 43.8204Z" fill="white"/>
<path d="M25.4729 39.3841L24.4102 38.3213L18.911 43.8204L19.9738 44.8832L25.4729 39.3841Z" fill="white"/>
<path d="M41.5979 21.3274L40.5352 20.2646L34.9512 25.8486L36.014 26.9114L41.5979 21.3274Z" fill="white"/>
<path d="M41.5996 25.8486L36.0156 20.2646L34.9529 21.3274L40.5368 26.9114L41.5996 25.8486Z" fill="white"/>
<path d="M11.0463 26.1295L7.27734 22.6215L8.30034 21.5225L11.0503 24.0805L13.8263 21.5195L14.8463 22.6245L11.0463 26.1295Z" fill="white"/>
</svg>
