<svg width="48" height="48" viewBox="0 0 48 48" fill="none" xmlns="http://www.w3.org/2000/svg">
<path d="M17.5343 40.752H9.03125V36.501H17.5343V40.752ZM10.5333 39.25H16.0323V38.003H10.5333V39.25Z" fill="white"/>
<path d="M24.8437 17.9213C22.8557 17.9213 20.9017 16.2183 17.2007 12.8083C16.5267 12.1863 15.7887 11.5063 14.9727 10.7663L15.9827 9.6543C16.8007 10.3973 17.5427 11.0803 18.2187 11.7043C21.6207 14.8403 23.3287 16.4143 24.8407 16.4183C24.8417 16.4183 24.8437 16.4183 24.8457 16.4183C26.3627 16.4183 28.2407 14.7513 31.6457 11.7293C32.2877 11.1603 32.9857 10.5413 33.7487 9.8723L34.7387 11.0023C33.9777 11.6693 33.2827 12.2863 32.6437 12.8533C28.8387 16.2293 26.8257 17.9213 24.8437 17.9213Z" fill="white"/>
<path d="M11.8511 35.5234H3.91406V40.0024H11.8511V35.5234Z" fill="#595359"/>
<path d="M12.6021 40.7525H3.16406V34.7725H12.6021V40.7525ZM4.66606 39.2505H11.1001V36.2735H4.66606V39.2505Z" fill="white"/>
<path d="M19.7925 35.5234H11.8555V40.0024H19.7925V35.5234Z" fill="#595359"/>
<path d="M20.5416 40.7525H11.1016V34.7725H20.5406V40.7525H20.5416ZM12.6036 39.2505H19.0396V36.2735H12.6036V39.2505Z" fill="white"/>
<path d="M15.8198 31.0156H7.88281V35.5226H15.8198V31.0156Z" fill="#595359"/>
<path d="M16.5718 36.2736H7.13281V30.2646H16.5708V36.2736H16.5718ZM8.63481 34.7716H15.0698V31.7666H8.63481V34.7716Z" fill="white"/>
<path d="M23.7853 31.0156H15.8203V35.5226H23.7853V31.0156Z" fill="#595359"/>
<path d="M24.5383 36.2736H15.0703V30.2646H24.5383V36.2736ZM16.5723 34.7716H23.0363V31.7666H16.5723V34.7716Z" fill="white"/>
<path d="M11.8511 26.5088H3.91406V31.0158H11.8511V26.5088Z" fill="#595359"/>
<path d="M12.6021 31.7668H3.16406V25.7568H12.6021V31.7668ZM4.66606 30.2648H11.1001V27.2588H4.66606V30.2648Z" fill="white"/>
<path d="M46.1068 31.7665V25.7565H38.3967V11.7605L41.9697 14.8845L42.9577 13.7535L38.3957 9.76553V7.64453H33.6908V25.7575H16.0307V7.64453H11.3257V9.41453L6.36575 13.7545L7.35575 14.8855L11.3257 11.4115V25.7575H3.21875V31.7675H33.6918V36.5015H31.7928V39.2505H28.5748V40.7525H31.7928H40.2967H43.3438V39.2495H40.2967V36.5005H38.3977V31.7665H46.1068ZM35.1938 9.14553H36.8947V25.7565H35.1938V9.14553ZM12.8287 9.14553H14.5297V25.7565H12.8287V9.14553ZM33.0108 30.2645V28.8895H31.5088V30.2645H29.6098V28.8895H28.1077V30.2645H4.72075V27.2585H11.3257H16.0307H33.6908H38.3957H44.6037V30.2645H43.2137V28.8895H41.7118V30.2645H39.8127V28.8895H38.3107V30.2645H36.4117V28.8895H34.9097V30.2645H33.6908H33.0108ZM38.7948 38.0025V39.2495H33.2948V38.0025H33.6918H38.3967H38.7948ZM36.8947 36.5005H35.1938V31.7665H36.8947V36.5005Z" fill="white"/>
<path d="M25.4161 16.4453H23.9141V24.0983H25.4161V16.4453Z" fill="white"/>
<path d="M20.6231 14.0928H19.1211V24.0988H20.6231V14.0928Z" fill="white"/>
<path d="M30.2325 14.6309H28.7305V24.0989H30.2325V14.6309Z" fill="white"/>
<path d="M26.209 28.8896H24.707V31.0156H26.209V28.8896Z" fill="white"/>
<path d="M22.7793 28.8896H21.2773V31.0156H22.7793V28.8896Z" fill="white"/>
<path d="M19.377 28.8896H17.875V31.0156H19.377V28.8896Z" fill="white"/>
<path d="M15.9747 28.8896H14.4727V31.0156H15.9747V28.8896Z" fill="white"/>
<path d="M16.4722 22.002H8.53516V26.509H16.4722V22.002Z" fill="#595359"/>
<path d="M17.2242 27.259H7.78516V21.25H17.2242V27.259ZM9.28716 25.757H15.7232V22.752H9.28716V25.757Z" fill="white"/>
<path d="M23.7299 39.25H8.96094V40.752H23.7299V39.25Z" fill="white"/>
</svg>
