<svg width="48" height="48" viewBox="0 0 48 48" fill="none" xmlns="http://www.w3.org/2000/svg">
<path d="M31.0066 43.431H19.8736L10.8906 33.704V13.229L17.3686 6.75098H32.9006L39.3786 13.229V33.689L31.0066 43.431ZM20.5306 41.929H30.3176L37.8766 33.132V13.851L32.2786 8.25298H17.9906L12.3926 13.851V33.117L20.5306 41.929Z" fill="white"/>
<path d="M25.1348 25.6855C21.2978 25.6855 18.1758 22.5635 18.1758 18.7265C18.1758 18.0605 18.2478 17.4925 18.4018 16.9375C18.5208 16.4305 18.7368 15.8875 19.0378 15.3535L20.3468 16.0905C20.1158 16.5015 19.9508 16.9115 19.8568 17.3105C19.7318 17.7595 19.6778 18.2005 19.6778 18.7265C19.6778 21.7355 22.1258 24.1835 25.1348 24.1835C26.6238 24.1835 27.9928 23.6195 28.9898 22.5955C30.0428 21.5425 30.6198 20.1715 30.6198 18.7265C30.6198 18.1855 30.5278 17.7035 30.4388 17.3025C30.3298 16.9355 30.1548 16.5005 29.9338 16.0585L31.2768 15.3855C31.5388 15.9075 31.7458 16.4265 31.8928 16.9275C32.0128 17.4565 32.1218 18.0405 32.1218 18.7265C32.1218 20.5725 31.3898 22.3215 30.0588 23.6515C28.7828 24.9615 27.0318 25.6855 25.1348 25.6855Z" fill="white"/>
<path fillrule="evenodd" clip-rule="evenodd" d="M25.1371 21.0801C26.2991 21.0801 27.2631 20.1161 27.2631 18.9541C27.2631 17.7921 26.2991 16.8281 25.1371 16.8281C23.9751 16.8281 23.0391 17.7921 23.0391 18.9541C23.0391 20.1161 23.9751 21.0801 25.1371 21.0801Z" fill="white"/>
<path d="M12.3926 13.5396H10.8906V2.76465L17.2896 7.73065L16.3686 8.91765L12.3926 5.83265V13.5396Z" fill="white"/>
<path d="M39.3799 13.5401H37.8779V5.85107L33.9359 8.97007L33.0039 7.79207L39.3799 2.74707V13.5401Z" fill="white"/>
<path d="M30.7677 37.1099H19.5057L16.7227 34.0799L19.0447 28.2949H31.2287L33.5497 34.0799L30.7677 37.1099ZM20.1657 35.6079H30.1067L31.8027 33.7609L30.2127 29.7959H20.0607L18.4707 33.7609L20.1657 35.6079Z" fill="white"/>
<path d="M14.869 29.3685L13.573 28.6085L15.899 24.6465L11.043 18.2155L12.242 17.3105L17.703 24.5425L14.869 29.3685Z" fill="white"/>
<path d="M35.4004 29.3685L32.5664 24.5425L38.0274 17.3105L39.2274 18.2155L34.3704 24.6465L36.6954 28.6085L35.4004 29.3685Z" fill="white"/>
<path d="M34.0938 16.4739H16.1748L13.0898 11.8899L14.3358 11.0509L16.9748 14.9719H33.2988L35.9668 11.0479L37.2088 11.8929L34.0938 16.4739Z" fill="white"/>
<path d="M18.4317 7.50195H16.9297V12.69H18.4317V7.50195Z" fill="white"/>
<path d="M22.1739 7.50195H20.6719V12.69H22.1739V7.50195Z" fill="white"/>
<path d="M25.8887 7.50195H24.3867V12.69H25.8887V7.50195Z" fill="white"/>
<path d="M29.6309 7.50195H28.1289V12.69H29.6309V7.50195Z" fill="white"/>
<path d="M33.3418 7.50195H31.8398V12.69H33.3418V7.50195Z" fill="white"/>
<path d="M22.9082 29.0459H21.4062V31.6529H22.9082V29.0459Z" fill="white"/>
<path d="M28.8614 29.0459H27.3594V31.6529H28.8614V29.0459Z" fill="white"/>
<path d="M12.3951 28.1184L9.86906 26.0894C7.64006 24.2934 6.41406 21.8104 6.41406 19.0964V9.23145L12.3951 17.5214V28.1184ZM7.91606 13.8814V19.0964C7.91606 21.3464 8.94406 23.4144 10.8111 24.9184L10.8931 24.9834V18.0064L7.91606 13.8814Z" fill="white"/>
<path d="M37.8789 28.1182V17.5192L43.8879 9.24316V19.0962C43.8879 21.8202 42.6499 24.3042 40.4009 26.0912L37.8789 28.1182ZM39.3809 18.0082V24.9842L39.4629 24.9182C41.3489 23.4202 42.3859 21.3542 42.3859 19.0972V13.8702L39.3809 18.0082Z" fill="white"/>
<path d="M27.6607 38.5557H22.4727V40.0577H27.6607V38.5557Z" fill="white"/>
<path d="M7.77544 42.8787H6.27344V34.7047L11.0914 29.4717L12.1974 30.4897L7.77544 35.2907V42.8787Z" fill="white"/>
<path d="M43.9982 43.3317H42.4962V35.2907L38.0742 30.4897L39.1802 29.4717L43.9982 34.7047V43.3317Z" fill="white"/>
</svg>
