<svg width="48" height="48" viewBox="0 0 48 48" fill="none" xmlns="http://www.w3.org/2000/svg">
<path d="M37.9679 26.5601H11.3789V8.37613H12.8809V25.0581H36.4659V8.16313H16.8069V6.66113H37.9679V26.5601Z" fill="white"/>
<path d="M27.139 43.5968H22.207V28.1758H27.139V43.5968ZM23.709 42.0948H25.637V29.6778H23.709V42.0948Z" fill="white"/>
<path d="M39.9423 43.5968H34.0813L25.4453 28.1758H31.3053L39.9423 43.5968ZM34.9623 42.0948H37.3793L30.4253 29.6778H28.0093L34.9623 42.0948Z" fill="white"/>
<path d="M15.2633 43.5968H9.40234L18.0393 28.1758H23.8993L15.2633 43.5968ZM11.9653 42.0948H14.3823L21.3363 29.6778H18.9193L11.9653 42.0948Z" fill="white"/>
<path d="M39.612 29.6776H9.70703V25.0576H39.612V29.6776ZM11.209 28.1756H38.11V26.5596H11.209V28.1756Z" fill="white"/>
<path d="M18.5275 14.0212L8.29653 6.07819C7.22853 5.25619 7.02753 3.71519 7.85053 2.64619C8.64253 1.61719 10.2415 1.40119 11.3025 2.18819L21.5485 10.1442L18.5275 14.0212ZM9.80353 3.19519C9.49853 3.19519 9.22053 3.32919 9.04053 3.56219C8.72853 3.96819 8.80853 4.57619 9.21553 4.89019L18.2635 11.9152L19.4385 10.4072L10.3945 3.38519C10.2315 3.26419 10.0225 3.19519 9.80353 3.19519Z" fill="white"/>
<path d="M24.2132 23.7715L24.6192 19.8075C24.6822 19.1865 24.5542 18.7055 24.2242 18.3345C23.7992 17.8555 23.0022 17.5605 22.0932 17.5445C20.7292 17.5155 19.9312 17.3635 19.0762 16.5825C18.3172 15.8715 17.8902 14.9175 17.8682 13.8895C17.8432 12.7525 18.3022 11.6435 19.1602 10.7685C20.8672 9.06153 23.0032 8.99153 24.9772 10.5315C27.7382 12.7455 28.1102 16.1865 26.0342 20.2265L24.2132 23.7715ZM22.1032 10.9285C21.4552 10.9285 20.8242 11.2305 20.2282 11.8265C19.6612 12.4045 19.3542 13.1285 19.3712 13.8575C19.3842 14.4865 19.6362 15.0475 20.0972 15.4805C20.5392 15.8845 20.8782 16.0165 22.1232 16.0435C23.4622 16.0655 24.6392 16.5385 25.3492 17.3375C25.4092 17.4045 25.4662 17.4745 25.5192 17.5465C26.1212 15.5485 26.0712 13.3345 24.0462 11.7105C23.3922 11.2015 22.7182 10.9285 22.1032 10.9285Z" fill="white"/>
<path d="M19.1023 9.11897L17.9141 8.2002L15.7878 10.9501L16.976 11.8688L19.1023 9.11897Z" fill="white"/>
<path d="M32.4553 14.1438C30.9783 14.1438 29.7773 12.9428 29.7773 11.4658C29.7773 9.97279 30.9783 8.75879 32.4553 8.75879C33.9483 8.75879 35.1623 9.97279 35.1623 11.4658C35.1623 12.9428 33.9483 14.1438 32.4553 14.1438ZM32.4553 10.2608C31.8173 10.2608 31.2793 10.8128 31.2793 11.4658C31.2793 12.1138 31.8073 12.6418 32.4553 12.6418C33.1313 12.6418 33.6603 12.1248 33.6603 11.4658C33.6613 10.8008 33.1203 10.2608 32.4553 10.2608Z" fill="white"/>
<path d="M12.7211 26.2719L11.5391 25.3449L17.8671 17.2809L22.2611 22.0479L29.9111 14.0869L37.7651 22.4899L36.6681 23.5159L29.8961 16.2709L22.2391 24.2399L17.9591 19.5969L12.7211 26.2719Z" fill="white"/>
<path d="M22.9572 35.6592H18.5352V37.1612H22.9572V35.6592Z" fill="white"/>
<path d="M30.8126 35.6592H26.3906V37.1612H30.8126V35.6592Z" fill="white"/>
</svg>
