<svg width="49" height="48" viewBox="0 0 49 48" fill="none" xmlns="http://www.w3.org/2000/svg">
<path d="M32.1785 35.0687H16.7305V29.1587H18.2325V33.5667H30.6765V24.7507H16.7305V12.9307H32.1785V18.7557H30.6765V14.4327H18.2325V23.2487H32.1785V35.0687Z" fill="white"/>
<path d="M23.1348 9.62793H21.6328V13.6819H23.1348V9.62793Z" fill="white"/>
<path d="M27.2754 9.62793H25.7734V13.6819H27.2754V9.62793Z" fill="white"/>
<path d="M23.1348 34.3184H21.6328V38.3724H23.1348V34.3184Z" fill="white"/>
<path d="M27.2754 34.3184H25.7734V38.3724H27.2754V34.3184Z" fill="white"/>
<path d="M35.8049 41.3048H13.1289V28.4078H26.5219V29.9098H14.6309V39.8028H34.3029V18.8408H35.8049V41.3048Z" fill="white"/>
<path d="M27.2754 27.1465H25.7734V31.1715H27.2754V27.1465Z" fill="white"/>
<path d="M14.6309 29.1593H13.1289V6.69531H35.8049V19.5923H22.3839V18.0903H34.3029V8.19731H14.6309V29.1593Z" fill="white"/>
<path d="M23.1348 16.8281H21.6328V20.8531H23.1348V16.8281Z" fill="white"/>
<path d="M35.586 34.0553L34.523 32.9923L43.516 24.0003L34.523 15.0073L35.586 13.9443L45.641 24.0003L35.586 34.0553ZM13.348 34.0553L3.29297 24.0003L13.349 13.9443L14.412 15.0073L5.41797 24.0003L14.411 32.9933L13.348 34.0553Z" fill="white"/>
<path d="M44.5795 39.8027H4.35547V41.3047H44.5795V39.8027Z" fill="white"/>
<path d="M44.5795 6.69531H4.35547V8.19731H44.5795V6.69531Z" fill="white"/>
</svg>
