<svg width="48" height="48" viewBox="0 0 48 48" fill="none" xmlns="http://www.w3.org/2000/svg">
<path d="M46.2168 40.5541H32.5458V39.0521H43.3668L25.0908 12.3611L6.81484 39.0521H14.4608V40.5541H3.96484L25.0908 9.70215L46.2168 40.5541Z" fill="white"/>
<path d="M31.9769 20.3721H18.1719V21.8741H31.9769V20.3721Z" fill="white"/>
<path d="M23.5284 24.8232H15.1094V26.3252H23.5284V24.8232Z" fill="white"/>
<path d="M17.8041 29.2734H12.0781V30.7754H17.8041V29.2734Z" fill="white"/>
<path d="M11.9916 33.7227H9.01562V35.2247H11.9916V33.7227Z" fill="white"/>
<path d="M21.247 40.5407H19.745V35.2247H15.209V40.5407H13.707V33.7227H21.247V40.5407Z" fill="white"/>
<path d="M27.2571 40.5414H25.7551V30.7754H21.2481V40.5414H19.7461V29.2734H27.2571V40.5414Z" fill="white"/>
<path d="M33.2946 40.5412H31.7926V26.3252H27.2286V40.5412H25.7266V24.8232H33.2946V40.5412Z" fill="white"/>
<path d="M41.1347 33.7227H35.0117V35.2247H41.1347V33.7227Z" fill="white"/>
<path d="M38.1577 29.2734H35.0117V30.7754H38.1577V29.2734Z" fill="white"/>
<path d="M20.7516 17.1304C19.0126 15.8174 18.0156 13.7914 18.0156 11.5704C18.0156 7.68637 21.1756 4.52637 25.0596 4.52637C28.9276 4.52637 32.0756 7.68637 32.0756 11.5704C32.0756 13.7464 31.1136 15.7494 29.4356 17.0654L28.5076 15.8834C29.8206 14.8534 30.5726 13.2814 30.5726 11.5704C30.5726 8.51437 28.0986 6.02837 25.0586 6.02837C22.0026 6.02837 19.5166 8.51437 19.5166 11.5704C19.5166 13.3164 20.2966 14.9054 21.6566 15.9314L20.7516 17.1304Z" fill="white"/>
<path d="M25.8106 2.15918H24.3086V5.27718H25.8106V2.15918Z" fill="white"/>
<path d="M21.7175 4.31034L20.4414 2.07031L19.1363 2.8138L20.4124 5.05383L21.7175 4.31034Z" fill="white"/>
<path d="M19.9906 7.77082L17.2695 6.21191L16.5224 7.51607L19.2435 9.07497L19.9906 7.77082Z" fill="white"/>
<path d="M16.6965 10.8193H14.2305V12.3213H16.6965V10.8193Z" fill="white"/>
<path d="M19.9934 15.3675L19.2461 14.0635L16.5253 15.6227L17.2726 16.9267L19.9934 15.3675Z" fill="white"/>
<path d="M30.4163 3.78143L29.1133 3.03418L27.5531 5.75466L28.8561 6.50191L30.4163 3.78143Z" fill="white"/>
<path d="M34.8752 6.77872L34.125 5.47754L31.9133 6.75276L32.6636 8.05394L34.8752 6.77872Z" fill="white"/>
<path d="M34.4702 10.8193H31.3242V12.3213H34.4702V10.8193Z" fill="white"/>
<path d="M35.0186 16.4467L32.6094 15.0576L31.8591 16.3588L34.2683 17.7479L35.0186 16.4467Z" fill="white"/>
</svg>
