<svg width="48" height="48" viewBox="0 0 48 48" fill="none" xmlns="http://www.w3.org/2000/svg">
<path d="M38.4553 23.1494H9.57031V4.52637H38.4553V23.1494ZM11.0723 21.6474H36.9533V6.02837H11.0723V21.6474Z" fill="white"/>
<path d="M24.0117 31.0425L19.9727 28.9185V21.6475H28.0507V28.9185L24.0117 31.0425ZM21.4747 28.0105L24.0117 29.3455L26.5487 28.0105V23.1495H21.4747V28.0105Z" fill="white"/>
<path d="M38.8241 45.1462H9.20312V31.0182L20.8071 27.6592L24.0131 29.3462L27.2191 27.6592L38.8231 31.0182V45.1462H38.8241ZM10.7051 43.6442H37.3221V32.1472L27.3841 29.2702L24.0141 31.0422L20.6441 29.2702L10.7061 32.1472V43.6442H10.7051Z" fill="white"/>
<path d="M24.011 34.5319L15.918 30.2039L16.627 28.8789L24.011 32.8289L31.395 28.8789L32.104 30.2039L24.011 34.5319Z" fill="white"/>
<path d="M11.0708 18.4392L5.96875 16.5112V10.0872L11.0708 8.1582V18.4392ZM7.47075 15.4732L9.56875 16.2652V10.3322L7.47075 11.1252V15.4732Z" fill="white"/>
<path d="M36.9531 18.4423V8.15527L42.0261 10.0893V16.5103L36.9531 18.4423ZM38.4551 10.3363V16.2633L40.5241 15.4753V11.1243L38.4551 10.3363Z" fill="white"/>
<path d="M41.4862 10.1812H39.9842V3.54716L38.7222 2.28716H9.29816L8.03716 3.54716V10.1812H6.53516V2.92516L8.67516 0.785156H39.3452L41.4862 2.92516V10.1812Z" fill="white"/>
<path fillrule="evenodd" clip-rule="evenodd" d="M8.73616 27.501H13.6682L15.3692 29.202V36.232L13.6682 37.932H8.73616L7.03516 36.232V29.202L8.73616 27.501Z" fill="#595359"/>
<path d="M13.9762 38.683H8.42325L6.28125 36.543V28.89L8.42225 26.749H13.9773L16.1183 28.89V36.543L13.9762 38.683ZM9.04425 37.181H13.3553L14.6163 35.92V29.513L13.3542 28.251H9.04525L7.78325 29.513V35.92L9.04425 37.181Z" fill="white"/>
<path d="M12.3323 29.415H7.03125V30.917H12.3323V29.415Z" fill="white"/>
<path d="M12.3323 31.9648H7.03125V33.4668H12.3323V31.9648Z" fill="white"/>
<path d="M12.3323 34.5176H7.03125V36.0196H12.3323V34.5176Z" fill="white"/>
<path d="M27.6893 19.4931H20.3033L17.0703 17.0761L17.9703 15.8731L20.8033 17.9911H27.1933L30.0553 15.8711L30.9503 17.0781L27.6893 19.4931Z" fill="white"/>
<path d="M20.9356 9.86914H19.4336V14.2351H20.9356V9.86914Z" fill="white"/>
<path d="M28.5918 9.86914H27.0898V14.2351H28.5918V9.86914Z" fill="white"/>
<path d="M12.2771 37.9326H9.95312V44.3956H12.2771V37.9326Z" fill="#595359"/>
<path d="M13.0291 45.1466H9.20312V37.1816H13.0291V45.1466ZM10.7051 43.6446H11.5271V38.6836H10.7051V43.6446Z" fill="white"/>
<path d="M14.3458 44.3955H7.88281V46.4645H14.3458V44.3955Z" fill="#595359"/>
<path d="M15.0978 47.2155H7.13281V43.6445H15.0978V47.2155ZM8.63481 45.7135H13.5958V45.1465H8.63481V45.7135Z" fill="white"/>
<path d="M32.4889 45.1458H20.1719V38.5698H31.1429V34.8418H32.6449V40.0718H21.6739V43.6438H32.4889V45.1458Z" fill="white"/>
<path d="M5.99809 11.5996H4.49609V14.7176H5.99809V11.5996Z" fill="white"/>
<path d="M43.502 11.5996H42V14.7176H43.502V11.5996Z" fill="white"/>
<path d="M13.7613 44.7359L12.7773 43.6009L17.4963 39.5049H20.9223V41.0069H18.0563L13.7613 44.7359Z" fill="white"/>
<path d="M24.6231 39.3213H23.1211V44.3953H24.6231V39.3213Z" fill="white"/>
</svg>
