<svg width="48" height="48" viewBox="0 0 48 48" fill="none" xmlns="http://www.w3.org/2000/svg">
<path d="M27.2075 41.4474H22.1055V24.5674H23.6075V39.9454H25.7055V24.5674H27.2075V41.4474Z" fill="white"/>
<path d="M29.73 25.375H19.582V22.668H21.084V23.872H28.228V22.668H29.73V25.375Z" fill="white"/>
<path d="M26.6102 24.6226H25.1082V18.6846H24.2012V24.6226H22.6992V17.1826H26.6102V24.6226Z" fill="white"/>
<path d="M25.8582 20.5283H23.4492V22.0303H25.8582V20.5283Z" fill="white"/>
<path d="M39.4072 45.1033H9.89922L4.07422 39.2783V9.80031L9.89822 3.94531H39.4082L45.2322 9.80031V39.2783L39.4072 45.1033ZM10.5222 43.6013H38.7842L43.7302 38.6553V10.4203L38.7832 5.44731H10.5232L5.57622 10.4203V38.6553L10.5222 43.6013Z" fill="white"/>
<path d="M13.1406 45.0043L12.3906 43.7013L18.9136 39.9453H30.8826L37.3506 43.7033L36.5966 45.0023L30.4786 41.4473H19.3156L13.1406 45.0043Z" fill="white"/>
<path d="M22.3492 35.6387L15.4902 29.4087L11.4572 34.0457L10.3242 33.0587L15.3632 27.2637L23.3582 34.5277L22.3492 35.6387Z" fill="white"/>
<path d="M27.0216 33.6218L25.8906 32.6338L36.2706 20.7568L45.0296 30.0318L43.9386 31.0628L36.3136 22.9898L27.0216 33.6218Z" fill="white"/>
<path d="M44.4813 16.4172H28.3633L29.8823 13.8662H34.7253L36.0003 11.6832H37.9803L39.4833 9.0752H44.4813V10.5772H40.3523L38.8503 13.1852H36.8613L35.8523 14.9152H44.4813V16.4172Z" fill="white"/>
<path d="M33.7663 7.375H23.3633V8.877H33.7663V7.375Z" fill="white"/>
<path d="M21.4939 11.4004H9.50391V12.9024H21.4939V11.4004Z" fill="white"/>
<path d="M31.8324 34.85L30.7734 33.786L36.6334 27.957L42.4644 33.787L41.4014 34.849L36.6314 30.078L31.8324 34.85Z" fill="white"/>
<path d="M41.4014 42.8432L36.6304 38.0712L32.6254 42.0522L31.5664 40.9852L36.6344 35.9502L42.4644 41.7802L41.4014 42.8432Z" fill="white"/>
<path d="M37.3848 29.0166H35.8828V44.3516H37.3848V29.0166Z" fill="white"/>
<path d="M9.50222 25.4595C6.50922 25.4595 4.07422 23.0245 4.07422 20.0315C4.07422 17.0385 6.50922 14.6035 9.50222 14.6035C12.4952 14.6035 14.9302 17.0385 14.9302 20.0315C14.9302 23.0245 12.4952 25.4595 9.50222 25.4595ZM9.50222 16.1045C7.33722 16.1045 5.57622 17.8655 5.57622 20.0305C5.57622 22.1955 7.33722 23.9565 9.50222 23.9565C11.6672 23.9565 13.4282 22.1955 13.4282 20.0305C13.4282 17.8655 11.6672 16.1045 9.50222 16.1045Z" fill="white"/>
<path d="M31.8324 38.9887L30.7734 37.9247L36.6334 32.0947L42.4644 37.9257L41.4014 38.9877L36.6314 34.2167L31.8324 38.9887Z" fill="white"/>
<path d="M13.9174 37.181L8.20544 32.219L5.38344 35.306L4.27344 34.293L8.08444 30.124L14.9014 36.047L13.9174 37.181Z" fill="white"/>
</svg>
