<svg width="159" height="59" viewBox="0 0 159 59" fill="none" xmlns="http://www.w3.org/2000/svg">
<path d="M16 0L0 16V0H16Z" fill="#FF1C6E"/>
<path d="M143 0L159 16V0H143Z" fill="#FF1C6E"/>
<path d="M-6.99382e-07 42.002L16 58.002L0 58.002L-6.99382e-07 42.002Z" fill="#FF1C6E"/>
<path d="M159 42.002L143 58.002L159 58.002L159 42.002Z" fill="#FF1C6E"/>
<path d="M29.5052 57L1 28.5849V1H129.495L158 29.4151V57H29.5052Z" fill="#FF1C6E" fillOpacity="0.3" stroke="#FF1C6E" strokeWidth="2"/>
<path d="M40.0684 27.1797H42.5156V31.0898C42.5156 31.6276 42.3242 32.0879 41.9414 32.4707C41.5586 32.8535 41.0983 33.0449 40.5605 33.0449H33.7178V35H40.5605C41.6361 35 42.5566 34.6172 43.3223 33.8516C44.0833 33.0905 44.4639 32.1699 44.4639 31.0898V25.2314H40.0684V27.1797ZM55.668 31.0898C55.668 31.6276 55.4788 32.0879 55.1006 32.4707C54.7178 32.8535 54.2575 33.0449 53.7197 33.0449H47.8545V29.1348C47.8545 28.597 48.0459 28.1367 48.4287 27.7539C48.8115 27.3711 49.2718 27.1797 49.8096 27.1797H55.668V31.0898ZM45.8994 35H53.7197C54.7952 35 55.7158 34.6172 56.4814 33.8516C57.2425 33.0905 57.623 32.1699 57.623 31.0898V25.2314H49.8096C48.7295 25.2314 47.8089 25.612 47.0479 26.373C46.2822 27.1387 45.8994 28.0592 45.8994 29.1348V35ZM59.0654 35H61.0205V25.2314H59.0654V35ZM72.2246 25.2314V32.6416L64.8145 25.2314H62.4561V35H64.4111V27.5898L71.8213 35H74.1797V25.2314H72.2246ZM88.8633 25.2314V32.6416L81.4531 25.2314H79.0947V35H81.0498V27.5898L88.46 35H90.8184V25.2314H88.8633ZM102.029 31.0898C102.029 31.6276 101.84 32.0879 101.462 32.4707C101.079 32.8535 100.619 33.0449 100.081 33.0449H94.2158V29.1348C94.2158 28.597 94.4072 28.1367 94.79 27.7539C95.1729 27.3711 95.6331 27.1797 96.1709 27.1797H102.029V31.0898ZM92.2607 35H100.081C101.157 35 102.077 34.6172 102.843 33.8516C103.604 33.0905 103.984 32.1699 103.984 31.0898V25.2314H96.1709C95.0908 25.2314 94.1702 25.612 93.4092 26.373C92.6436 27.1387 92.2607 28.0592 92.2607 29.1348V35ZM120.028 25.2314L117.191 33.0449H116.214L114.785 29.1211H112.707L111.278 33.0449H110.349L107.505 25.2314H105.427L108.981 35H112.646L113.746 31.9785L114.847 35H118.559L122.113 25.2314H120.028ZM123.556 35H125.511V33.0449H123.556V35ZM123.556 32.5596H125.511V25.2314H123.556V32.5596Z" fill="white"/>
</svg>
